<svg width="2205" height="2479" viewBox="0 0 2205 2479" fill="none" xmlns="http://www.w3.org/2000/svg">
<mask id="mask0_4_19" style="mask-type:luminance" maskUnits="userSpaceOnUse" x="0" y="0" width="2205" height="2479">
<path fill-rule="evenodd" clip-rule="evenodd" d="M1357.23 1384.55C1708.8 1444.65 2012.75 1628.56 2198.4 1901.55C2206.32 1913.21 2206.32 1928.75 2198.4 1940.39C2012.75 2213.4 1708.8 2397.31 1357.27 2457.41C1552.41 2359.35 1683.72 2152.61 1683.72 1920.99C1683.72 1689.33 1552.41 1482.59 1357.23 1384.55ZM1102.47 1732.98C1205.51 1732.98 1285.74 1819.36 1285.74 1921.01C1285.74 2022.66 1205.51 2109.04 1102.47 2109.04C999.441 2109.04 919.219 2022.66 919.219 1921.01C919.219 1819.36 999.441 1732.98 1102.47 1732.98ZM1102.47 2147.72C978.391 2147.72 882.352 2043.16 882.352 1920.99C882.352 1798.8 978.391 1694.25 1102.47 1694.25C1226.57 1694.25 1322.6 1798.8 1322.6 1920.99C1322.6 2043.16 1226.57 2147.72 1102.47 2147.72ZM1102.47 2478.85C1401.61 2478.85 1644.99 2228.59 1644.99 1920.99C1644.99 1638.37 1439.53 1404.19 1174.15 1368V1524.07C1174.15 1563.81 1142.41 1596.68 1102.47 1596.68C1062.54 1596.68 1030.79 1563.81 1030.79 1524.07V1367.98C968.59 1376.45 909.672 1395.81 855.941 1424.12C856.789 1424.65 857.609 1425.18 858.449 1425.76C911.109 1461.71 941.82 1521.59 941.82 1585.18C941.828 1689.07 859.5 1776.89 754.32 1776.89C694.691 1776.89 640.199 1748.66 604.762 1700.81L604.281 1700.16C575.781 1767.93 559.941 1842.59 559.941 1920.97C559.941 2228.59 803.309 2478.85 1102.47 2478.85ZM754.32 1738.16C836.371 1738.16 903.102 1669.51 903.09 1585.18C903.09 1533.82 878.23 1486.19 836.609 1457.75C825.512 1450.18 811.031 1450.18 799.961 1457.86C732.281 1504.69 674.77 1567.73 633.641 1640.14C626.91 1652 627.789 1666.85 635.871 1677.77C664.301 1716.16 707.461 1738.16 754.32 1738.16ZM1564.84 373.371H640.102C540.039 373.371 458.621 289.66 458.621 186.75V34.0195C458.621 15.3086 473.359 0.128906 491.578 0.128906L1713.35 0.140625C1731.55 0.140625 1746.31 15.3203 1746.31 34.0312V186.762C1746.31 289.66 1664.91 373.371 1564.84 373.371ZM1267.78 678.828H937.18C837.121 678.828 755.691 595.121 755.691 492.199V412.09H1449.28V492.199C1449.26 595.109 1367.85 678.828 1267.78 678.828ZM1102.47 1557.96C1084.27 1557.96 1069.52 1542.79 1069.52 1524.07V870.051C1018.44 855.23 980.879 806.871 980.879 749.672V717.559H1224.08V749.672C1224.06 806.879 1186.52 855.23 1135.42 870.051V1524.07C1135.42 1542.81 1120.66 1557.96 1102.47 1557.96ZM847.648 2457.39C496.141 2397.27 192.18 2213.38 6.56641 1940.39C-1.36328 1928.75 -1.36328 1913.21 6.56641 1901.55C192.219 1628.56 496.16 1444.67 847.691 1384.55C652.52 1482.59 521.211 1689.33 521.211 1920.97C521.211 2152.61 652.5 2359.33 847.648 2457.39Z" fill="white"/>
</mask>
<g mask="url(#mask0_4_19)">
<path d="M-1.36328 0.128906V2478.85H2206.32V0.128906H-1.36328Z" fill="#0463FA"/>
</g>
</svg>
